<?xml version="1.0" standalone="no"?>
<!DOCTYPE svg PUBLIC "-//W3C//DTD SVG 20010904//EN"
 "http://www.w3.org/TR/2001/REC-SVG-20010904/DTD/svg10.dtd">
<svg version="1.0" xmlns="http://www.w3.org/2000/svg"
 width="375.000000pt" height="360.000000pt" viewBox="0 0 375.000000 360.000000"
 preserveAspectRatio="xMidYMid meet">
<metadata>
Created by potrace 1.13, written by Peter Selinger 2001-2015
</metadata>
<g transform="translate(0.000000,360.000000) scale(0.100000,-0.100000)"
fill="#000000" stroke="none">
<path d="M0 1800 l0 -1800 1875 0 1875 0 0 1800 0 1800 -1875 0 -1875 0 0
-1800z m2029 1695 c23 -8 243 -130 489 -271 843 -484 791 -451 854 -542 58
-83 59 -107 56 -916 -3 -661 -5 -736 -21 -782 -21 -64 -75 -135 -130 -172 -62
-43 -1174 -682 -1225 -704 -63 -28 -217 -36 -298 -15 -41 11 -134 58 -285 145
-123 70 -392 225 -598 343 -208 119 -395 233 -423 258 -27 24 -60 65 -72 90
-45 89 -48 139 -44 911 4 828 0 786 88 883 28 31 72 68 98 85 53 33 1108 639
1162 668 85 44 252 53 349 19z"/>
<path d="M2555 2943 c-33 -25 -78 -61 -99 -80 -22 -18 -46 -33 -53 -33 -7 0
-13 -4 -13 -9 0 -5 -18 -22 -40 -38 -22 -15 -40 -34 -40 -42 0 -7 -6 -11 -14
-8 -13 5 -55 -29 -45 -36 2 -2 36 -20 74 -41 97 -52 206 -137 269 -210 56 -64
116 -149 116 -163 0 -4 -39 -30 -88 -58 -48 -27 -114 -65 -147 -85 -33 -20
-87 -51 -121 -70 l-61 -33 -74 75 c-48 49 -94 84 -130 101 -137 64 -284 65
-413 1 -64 -31 -149 -102 -140 -116 4 -7 2 -8 -4 -4 -6 4 -23 -12 -39 -36 -92
-138 -105 -288 -41 -451 134 -338 593 -382 818 -79 l25 33 200 -115 c110 -63
201 -121 203 -129 4 -22 -110 -168 -175 -225 -65 -56 -176 -128 -243 -159
-132 -60 -241 -83 -406 -83 -106 0 -150 5 -226 24 -237 60 -420 188 -570 399
-102 143 -149 270 -167 452 l-8 80 -2 -71 c-1 -65 -3 -73 -31 -97 -16 -15 -32
-27 -36 -27 -3 0 -20 -15 -38 -32 -17 -18 -61 -55 -96 -83 -36 -27 -70 -54
-76 -60 -6 -5 -45 -35 -87 -65 l-76 -55 0 -123 c-1 -92 3 -130 14 -153 9 -16
13 -34 10 -39 -3 -5 10 -27 30 -48 24 -27 126 -92 323 -205 158 -91 422 -243
587 -338 384 -220 389 -223 472 -216 61 5 78 13 331 158 757 433 979 563 1005
587 15 14 38 48 52 76 l25 50 0 730 c0 686 -2 733 -19 771 -19 43 -85 107
-142 139 -127 73 -223 126 -226 126 -2 0 -20 11 -41 23 -20 13 -73 43 -117 67
-44 23 -87 49 -96 56 -26 23 -51 16 -114 -33z m13 -933 l-4 -60 42 0 c46 0 47
1 56 90 3 21 9 25 42 28 l39 3 -6 -60 -5 -60 31 -3 c29 -3 32 -7 35 -40 l3
-38 -40 0 -41 0 0 -45 c0 -25 -1 -48 -2 -52 -2 -5 12 -9 30 -11 29 -3 32 -6
32 -37 0 -32 -2 -34 -37 -37 -36 -3 -38 -5 -41 -38 -7 -94 -10 -100 -51 -100
l-38 0 5 71 5 70 -44 -3 c-42 -3 -44 -4 -47 -38 -1 -19 -5 -50 -8 -68 -5 -31
-7 -33 -42 -30 l-37 3 3 68 4 67 -31 0 c-29 0 -31 3 -31 35 0 33 2 35 34 35
38 0 46 12 46 71 0 37 -2 39 -31 39 -29 0 -30 2 -27 38 3 33 6 37 33 40 37 5
45 16 45 68 0 50 4 54 48 54 l34 0 -4 -60z"/>
</g>
</svg>
